# Blender 3.6.5
# www.blender.org
mtllib door1.mtl
o Door.005
v 2.752409 0.000000 -2.970456
v 2.752409 2.000000 -2.970456
v 2.752409 0.000000 -4.470456
v 2.752409 2.000000 -4.470456
v 3.252409 0.000000 -2.970456
v 3.252409 2.000000 -2.970456
v 3.252409 0.000000 -4.470456
v 3.252409 2.000000 -4.470456
vn -0.0000 -0.0000 -1.0000
vn 1.0000 -0.0000 -0.0000
vn -0.0000 -0.0000 1.0000
vn -0.0000 -1.0000 -0.0000
vn -0.0000 1.0000 -0.0000
vn -1.0000 -0.0000 -0.0000
vt 0.474490 2.950006
vt 0.503193 2.253900
vt 0.503193 2.950006
vt 0.003837 0.950025
vt 0.244554 0.023142
vt 0.244554 0.950025
vt 0.319346 2.950006
vt 0.348049 2.253900
vt 0.348049 2.950006
vt 0.474490 2.095878
vt 0.474490 2.253900
vt 0.759986 0.036773
vt 0.857526 0.988141
vt 0.764774 0.992662
vt 0.499566 -0.012847
vt 0.261142 0.980093
vt 0.261142 -0.012847
vt 0.003837 0.023142
vt 0.319346 2.253900
vt 0.348049 2.095878
vt 0.852738 0.032252
vt 0.499566 0.980093
s 0
usemtl Material.010
f 8/1/1 3/2/1 4/3/1
f 6/4/2 7/5/2 8/6/2
f 2/7/3 5/8/3 6/9/3
f 5/8/4 3/10/4 7/11/4
f 2/12/5 8/13/5 4/14/5
f 4/15/6 1/16/6 2/17/6
f 8/1/1 7/11/1 3/2/1
f 6/4/2 5/18/2 7/5/2
f 2/7/3 1/19/3 5/8/3
f 5/8/4 1/20/4 3/10/4
f 2/12/5 6/21/5 8/13/5
f 4/15/6 3/22/6 1/16/6
