# Blender 3.6.5
# www.blender.org
mtllib door6.mtl
o Door.002
v 3.734561 0.000000 -25.215197
v 3.734561 2.000000 -25.215197
v 5.234561 0.000000 -25.215197
v 5.234561 2.000000 -25.215197
v 3.734561 0.000000 -24.715197
v 3.734561 2.000000 -24.715197
v 5.234561 0.000000 -24.715197
v 5.234561 2.000000 -24.715197
vn 1.0000 -0.0000 -0.0000
vn -0.0000 -0.0000 1.0000
vn -1.0000 -0.0000 -0.0000
vn -0.0000 -1.0000 -0.0000
vn -0.0000 1.0000 -0.0000
vn -0.0000 -0.0000 -1.0000
vt 0.235425 0.978402
vt 0.235425 0.047866
vt 0.014371 0.978402
vt 0.014371 0.047866
s 0
usemtl Material.007
f 8/1/1 3/2/1 4/1/1
f 6/3/2 7/2/2 8/1/2
f 2/3/3 5/4/3 6/3/3
f 5/4/4 3/2/4 7/2/4
f 2/3/5 8/1/5 4/1/5
f 4/1/6 1/4/6 2/3/6
f 8/1/1 7/2/1 3/2/1
f 6/3/2 5/4/2 7/2/2
f 2/3/3 1/4/3 5/4/3
f 5/4/4 1/4/4 3/2/4
f 2/3/5 6/3/5 8/1/5
f 4/1/6 3/2/6 1/4/6
