# Blender 3.6.5
# www.blender.org
mtllib door3.mtl
o Door.008
v 5.869693 0.000000 1.027492
v 5.869693 2.000000 1.027492
v 5.869693 0.000000 -0.472508
v 5.869693 2.000000 -0.472508
v 6.369693 0.000000 1.027492
v 6.369693 2.000000 1.027492
v 6.369693 0.000000 -0.472508
v 6.369693 2.000000 -0.472508
vn -0.0000 -0.0000 -1.0000
vn 1.0000 -0.0000 -0.0000
vn -0.0000 -0.0000 1.0000
vn -0.0000 -1.0000 -0.0000
vn -0.0000 1.0000 -0.0000
vn -1.0000 -0.0000 -0.0000
vt 0.546742 3.488584
vt 0.640109 3.315409
vt 0.640109 3.488584
vt -0.010350 1.044775
vt 0.250892 0.033132
vt 0.250892 1.044775
vt 0.042085 3.488584
vt 0.135452 3.315409
vt 0.135452 3.488584
vt 0.546742 3.276097
vt 0.546742 3.315409
vt 0.884344 0.982491
vt 0.742985 0.052599
vt 0.868344 0.047831
vt 0.493202 1.010627
vt 0.268489 0.018120
vt 0.268489 1.010627
vt 0.758984 0.987259
vt -0.010350 0.033132
vt 0.042085 3.315409
vt 0.135452 3.276097
vt 0.493202 0.018120
s 0
usemtl Material.013
f 8/1/1 3/2/1 4/3/1
f 6/4/2 7/5/2 8/6/2
f 2/7/3 5/8/3 6/9/3
f 5/8/4 3/10/4 7/11/4
f 2/12/5 8/13/5 4/14/5
f 4/15/6 1/16/6 2/17/6
f 2/12/5 6/18/5 8/13/5
f 8/1/1 7/11/1 3/2/1
f 6/4/2 5/19/2 7/5/2
f 2/7/3 1/20/3 5/8/3
f 5/8/4 1/21/4 3/10/4
f 4/15/6 3/22/6 1/16/6
