# Blender 3.6.5
# www.blender.org
mtllib salaFinal.mtl
o Sala1
v 5.244141 0.000000 -16.958303
v 6.736988 0.000000 -16.958303
v 6.756207 0.000000 -17.618902
v 11.232941 0.000000 -17.618902
v 11.232941 0.000000 -19.549702
v 11.978941 0.000000 -19.549702
v 11.978941 0.000000 -20.507231
v 11.978941 0.000000 -21.199499
v 11.978941 0.000000 -22.109301
v 11.232941 0.000000 -22.109303
v 11.232941 0.000000 -23.923801
v 6.742451 0.000000 -23.923801
v 6.742451 0.000000 -24.697702
v 5.276991 0.000000 -24.697704
v 3.776991 0.000000 -24.697704
v 2.450641 0.000000 -24.697704
v 2.450641 0.000000 -23.923801
v -2.139799 0.000000 -23.923801
v -2.139799 0.000000 -17.618902
v 2.291733 0.000000 -17.618902
v 2.278268 0.000000 -16.958303
v 3.744141 0.000000 -16.958302
v 5.244141 2.000000 -16.958303
v 6.736988 2.000000 -16.958303
v 6.756207 2.000000 -17.618902
v 11.232941 2.000000 -17.618902
v 11.232941 2.000000 -19.549702
v 11.978941 2.000000 -19.549702
v 11.978941 2.000000 -20.507231
v 11.978941 2.000000 -21.199499
v 11.978941 2.000000 -22.109301
v 11.232941 2.000000 -22.109303
v 11.232941 2.000000 -23.923801
v 6.742451 2.000000 -23.923801
v 6.742451 2.000000 -24.697702
v 5.276991 2.000000 -24.697704
v 3.776991 2.000000 -24.697704
v 2.450641 2.000000 -24.697704
v 2.450641 2.000000 -23.923801
v -2.139799 2.000000 -23.923801
v -2.139799 2.000000 -17.618902
v 2.291733 2.000000 -17.618902
v 2.278268 2.000000 -16.958303
v 3.744141 2.000000 -16.958302
v 5.276991 0.000000 -24.697704
v 3.776991 0.000000 -24.697704
v 2.450641 0.000000 -24.697704
v 2.450641 0.000000 -23.923801
v 5.276991 2.000000 -24.697704
v 3.776991 2.000000 -24.697704
v 2.450641 2.000000 -24.697704
v 5.276991 0.000000 -25.197302
v 3.776991 0.000000 -25.197300
v 5.276991 2.000000 -25.197302
v 3.776991 2.000000 -25.197300
vn -0.0000 -0.0000 -1.0000
vn -0.0000 -0.0000 1.0000
vn 1.0000 -0.0000 -0.0000
vn -1.0000 -0.0000 -0.0000
vn 0.9998 -0.0000 0.0204
vn -0.9996 -0.0000 -0.0291
vt 0.555507 1.033890
vt 0.671176 -0.057909
vt 0.671176 1.033890
vt 0.464060 0.971558
vt 0.350165 0.031394
vt 0.350165 0.971558
vt 0.558698 0.995183
vt 0.819812 -0.029533
vt 0.819812 0.995183
vt 0.676716 0.009237
vt 0.178623 1.016337
vt 0.178623 0.009237
vt 0.239242 1.076669
vt 0.118979 0.051952
vt 0.118979 1.076669
vt 0.519502 1.009143
vt 0.832829 0.010831
vt 0.832829 1.009143
vt 0.094195 1.049507
vt 0.177182 0.024791
vt 0.177182 1.049507
vt 0.680118 1.107053
vt 0.542954 -0.098989
vt 0.542954 1.107053
vt -0.005035 1.022345
vt 0.179075 -0.002371
vt 0.179075 1.022345
vt 0.524594 1.049507
vt 0.329578 0.024791
vt 0.329578 1.049507
vt 1.136000 0.989637
vt 0.842561 0.034684
vt 0.842561 0.989637
vt 0.434520 1.076669
vt 0.337321 0.051952
vt 0.337321 1.076669
vt -0.004330 0.997551
vt 0.171579 0.036179
vt 0.171579 0.997551
vt 0.439875 0.979387
vt 0.351205 0.023565
vt 0.351205 0.979387
vt 0.177802 1.049507
vt 0.094833 0.024791
vt 0.094833 1.049507
vt 0.839181 0.971699
vt 1.168599 -0.011542
vt 1.168599 0.971699
vt 0.524773 1.022345
vt 0.336465 -0.002371
vt 0.336465 1.022345
vt 0.440458 1.076669
vt 0.326190 0.051952
vt 0.326190 1.076669
vt 0.438331 1.049507
vt 0.367462 1.049507
vt 0.367462 0.024791
vt 0.239242 0.051952
vt 0.438331 0.024791
vt 0.192610 1.049507
vt 0.255359 0.024791
vt 0.255359 1.049507
vt 0.251116 0.024791
vt 0.188366 1.049507
vt 0.251116 1.049507
vt 0.555507 -0.057909
vt 0.464060 0.031394
vt 0.558698 -0.029533
vt 0.676716 1.016337
vt 0.519502 0.010831
vt 0.094195 0.024791
vt 0.680118 -0.098989
vt -0.005035 -0.002371
vt 0.524594 0.024791
vt 1.136000 0.034684
vt 0.434520 0.051952
vt -0.004330 0.036179
vt 0.439875 0.023565
vt 0.177802 0.024791
vt 0.839181 -0.011542
vt 0.524773 -0.002371
vt 0.440458 0.051952
vt 0.192610 0.024791
vt 0.188366 0.024791
s 0
usemtl mapaDoom.001
f 28/1/1 5/2/1 27/3/1
f 38/4/2 15/5/2 37/6/2
f 40/7/2 17/8/2 39/9/2
f 41/10/3 18/11/3 40/12/3
f 29/13/4 6/14/4 28/15/4
f 42/16/1 19/17/1 41/18/1
f 43/19/5 20/20/5 42/21/5
f 32/22/2 9/23/2 31/24/2
f 44/25/1 21/26/1 43/27/1
f 33/28/4 10/29/4 32/30/4
f 34/31/2 11/32/2 33/33/2
f 35/34/4 12/35/4 34/36/4
f 24/37/1 1/38/1 23/39/1
f 36/40/2 13/41/2 35/42/2
f 25/43/6 2/44/6 24/45/6
f 26/46/1 3/47/1 25/48/1
f 27/49/4 4/50/4 26/51/4
f 31/52/4 8/53/4 30/54/4
f 38/55/3 39/56/3 17/57/3
f 7/58/4 30/54/4 8/53/4
f 51/55/3 48/57/3 47/59/3
f 50/60/3 53/61/3 55/62/3
f 52/63/4 49/64/4 54/65/4
f 28/1/1 6/66/1 5/2/1
f 38/4/2 16/67/2 15/5/2
f 40/7/2 18/68/2 17/8/2
f 41/10/3 19/69/3 18/11/3
f 29/13/4 7/58/4 6/14/4
f 42/16/1 20/70/1 19/17/1
f 43/19/5 21/71/5 20/20/5
f 32/22/2 10/72/2 9/23/2
f 44/25/1 22/73/1 21/26/1
f 33/28/4 11/74/4 10/29/4
f 34/31/2 12/75/2 11/32/2
f 35/34/4 13/76/4 12/35/4
f 24/37/1 2/77/1 1/38/1
f 36/40/2 14/78/2 13/41/2
f 25/43/6 3/79/6 2/44/6
f 26/46/1 4/80/1 3/47/1
f 27/49/4 5/81/4 4/50/4
f 31/52/4 9/82/4 8/53/4
f 7/58/4 29/13/4 30/54/4
f 50/60/3 46/83/3 53/61/3
f 52/63/4 45/84/4 49/64/4
